<svg width="156" height="58" viewBox="0 0 156 58" fill="none" xmlns="http://www.w3.org/2000/svg">
<rect x="0.5" y="0.672424" width="154" height="55" rx="27.5" stroke="black"/>
<path d="M28.2887 28.7404V31.2724H32.8607V32.1724H27.3287V24.3724H32.8487V25.2724H28.2887V27.8404H32.0207V28.7404H28.2887ZM41.7598 31.0324L41.4958 31.1164V24.3724H42.4558V32.1724H41.4958L36.4318 25.5244L36.6958 25.4404V32.1724H35.7358V24.3724H36.6958L41.7598 31.0324ZM47.7205 32.1724L44.8525 24.3724H45.8845L48.3685 31.2124H48.0805L50.5645 24.3724H51.5725L48.7285 32.1724H47.7205ZM57.0845 32.2924C56.3725 32.2924 55.7245 32.1284 55.1405 31.8004C54.5645 31.4644 54.1045 30.9964 53.7605 30.3964C53.4165 29.7964 53.2445 29.0884 53.2445 28.2724C53.2445 27.4564 53.4165 26.7484 53.7605 26.1484C54.1045 25.5404 54.5645 25.0724 55.1405 24.7444C55.7245 24.4164 56.3725 24.2524 57.0845 24.2524C57.7965 24.2524 58.4405 24.4164 59.0165 24.7444C59.6005 25.0724 60.0645 25.5404 60.4085 26.1484C60.7525 26.7484 60.9245 27.4564 60.9245 28.2724C60.9245 29.0884 60.7525 29.7964 60.4085 30.3964C60.0645 30.9964 59.6005 31.4644 59.0165 31.8004C58.4405 32.1284 57.7965 32.2924 57.0845 32.2924ZM57.0845 31.3924C57.6285 31.3924 58.1165 31.2764 58.5485 31.0444C58.9805 30.8044 59.3245 30.4524 59.5805 29.9884C59.8365 29.5244 59.9645 28.9524 59.9645 28.2724C59.9645 27.5924 59.8365 27.0244 59.5805 26.5684C59.3245 26.1044 58.9805 25.7524 58.5485 25.5124C58.1165 25.2724 57.6285 25.1524 57.0845 25.1524C56.5485 25.1524 56.0605 25.2724 55.6205 25.5124C55.1885 25.7524 54.8445 26.1044 54.5885 26.5684C54.3325 27.0244 54.2045 27.5924 54.2045 28.2724C54.2045 28.9524 54.3325 29.5244 54.5885 29.9884C54.8445 30.4524 55.1885 30.8044 55.6205 31.0444C56.0605 31.2764 56.5485 31.3924 57.0845 31.3924ZM69.0269 24.3724L66.2669 29.4964V32.1724H65.3069V29.4964L62.5469 24.3724H63.6269L66.0029 28.8724H65.6189L67.9469 24.3724H69.0269ZM72.445 28.7404V31.2724H77.017V32.1724H71.485V24.3724H77.005V25.2724H72.445V27.8404H76.177V28.7404H72.445ZM79.892 32.1724V24.3724H83.336C83.88 24.3724 84.344 24.4564 84.728 24.6244C85.112 24.7844 85.404 25.0284 85.604 25.3564C85.812 25.6844 85.916 26.0964 85.916 26.5924C85.916 26.9284 85.86 27.2164 85.748 27.4564C85.644 27.6964 85.496 27.9004 85.304 28.0684C85.112 28.2284 84.884 28.3524 84.62 28.4404C84.364 28.5284 84.084 28.5844 83.78 28.6084L83.744 28.5484C84.168 28.5644 84.532 28.6164 84.836 28.7044C85.14 28.7924 85.376 28.9524 85.544 29.1844C85.712 29.4164 85.796 29.7644 85.796 30.2284V32.1724H84.836V30.2284C84.836 29.9084 84.78 29.6604 84.668 29.4844C84.564 29.3004 84.384 29.1724 84.128 29.1004C83.88 29.0204 83.536 28.9804 83.096 28.9804H80.852V32.1724H79.892ZM80.852 28.0804H83.336C83.88 28.0804 84.284 27.9444 84.548 27.6724C84.82 27.3924 84.956 27.0324 84.956 26.5924C84.956 26.1684 84.82 25.8444 84.548 25.6204C84.284 25.3884 83.88 25.2724 83.336 25.2724H80.852V28.0804Z" fill="black"/>
<path d="M103.532 56.7501L103.88 1.64866e-05L126.872 0.141041C142.543 0.237162 155.169 13.019 155.073 28.6901C154.977 44.3612 142.195 56.9872 126.524 56.8911L103.532 56.7501Z" fill="#1E1E1E"/>
<g clip-path="url(#clip0_142_4226)">
<path d="M130.332 36.2737L138.383 28.2232L130.332 20.1727" stroke="white" stroke-width="2" stroke-linecap="round"/>
<path d="M138.398 28.223H118" stroke="white" stroke-width="2"/>
</g>
<defs>
<clipPath id="clip0_142_4226">
<rect width="22" height="18" fill="white" transform="translate(118 19.1724)"/>
</clipPath>
</defs>
</svg>
