<svg width="8" height="563" viewBox="0 0 8 563" fill="none" xmlns="http://www.w3.org/2000/svg">
<path d="M0 29.5C0 13.2076 13.2076 0 29.5 0V0C45.7924 0 59 13.2076 59 29.5V533.5C59 549.792 45.7924 563 29.5 563V563C13.2076 563 0 549.792 0 533.5V29.5Z" fill="url(#paint0_linear_330_2673)"/>
<path d="M0 53.0486C0 23.7507 13.2076 0 29.5 0L-nan -nanL-nan -nanL29.5 0C45.7924 0 59 23.7507 59 53.0486V509.951C59 539.249 45.7924 563 29.5 563L-nan -nanL-nan -nanL29.5 563C13.2076 563 0 539.249 0 509.951V53.0486Z" fill="url(#paint1_linear_330_2673)"/>
<defs>
<linearGradient id="paint0_linear_330_2673" x1="57.3792" y1="53.9044" x2="57.3792" y2="616.904" gradientUnits="userSpaceOnUse">
<stop stop-color="#F4839F" stop-opacity="0.8"/>
<stop offset="0.46875" stop-color="#FA9D81" stop-opacity="0.81"/>
<stop offset="1" stop-color="#FBE2D0"/>
</linearGradient>
<linearGradient id="paint1_linear_330_2673" x1="57.3792" y1="53.9044" x2="57.3792" y2="616.904" gradientUnits="userSpaceOnUse">
<stop stop-color="#F4839F" stop-opacity="0.8"/>
<stop offset="0.46875" stop-color="#FA9D81" stop-opacity="0.81"/>
<stop offset="1" stop-color="#FBE2D0"/>
</linearGradient>
</defs>
</svg>
