<svg width="8" height="291" viewBox="0 0 8 291" fill="none" xmlns="http://www.w3.org/2000/svg">
<path d="M-51 29.5C-51 13.2076 -37.7924 0 -21.5 0V0C-5.2076 0 8 13.2076 8 29.5V261.5C8 277.792 -5.2076 291 -21.5 291V291C-37.7924 291 -51 277.792 -51 261.5V29.5Z" fill="url(#paint0_linear_334_2620)"/>
<path d="M-51 27.4195C-51 12.2761 -37.7924 0 -21.5 0L-nan -nanL-nan -nanL-21.5 0C-5.2076 0 8 12.2761 8 27.4195V263.581C8 278.724 -5.2076 291 -21.5 291L-nan -nanL-nan -nanL-21.5 291C-37.7924 291 -51 278.724 -51 263.581V27.4195Z" fill="url(#paint1_linear_334_2620)"/>
<defs>
<linearGradient id="paint0_linear_334_2620" x1="6.37915" y1="27.8618" x2="6.37915" y2="318.862" gradientUnits="userSpaceOnUse">
<stop stop-color="#F4839F" stop-opacity="0.8"/>
<stop offset="0.46875" stop-color="#FA9D81" stop-opacity="0.81"/>
<stop offset="1" stop-color="#FBE2D0"/>
</linearGradient>
<linearGradient id="paint1_linear_334_2620" x1="6.37915" y1="27.8618" x2="6.37915" y2="318.862" gradientUnits="userSpaceOnUse">
<stop stop-color="#F4839F" stop-opacity="0.8"/>
<stop offset="0.46875" stop-color="#FA9D81" stop-opacity="0.81"/>
<stop offset="1" stop-color="#FBE2D0"/>
</linearGradient>
</defs>
</svg>
