<svg width="30" height="30" viewBox="0 0 30 30" fill="none" xmlns="http://www.w3.org/2000/svg">
<path d="M23.317 7.4921C21.7873 6.80147 20.147 6.29265 18.4319 6.00122C18.4007 5.9956 18.3695 6.00965 18.3534 6.03777C18.1424 6.40697 17.9087 6.88862 17.7451 7.26719C15.9004 6.99545 14.0652 6.99545 12.2583 7.26719C12.0946 6.8802 11.8525 6.40697 11.6406 6.03777C11.6245 6.01059 11.5933 5.99654 11.562 6.00122C9.84791 6.29172 8.20756 6.80054 6.67693 7.4921C6.66368 7.49772 6.65233 7.5071 6.64479 7.51928C3.53339 12.0931 2.68105 16.5545 3.09918 20.9606C3.10107 20.9822 3.11337 21.0028 3.1304 21.0159C5.18321 22.4993 7.17171 23.3998 9.12328 23.9967C9.15451 24.0061 9.18761 23.9949 9.20748 23.9695C9.66913 23.3492 10.0806 22.6952 10.4335 22.0073C10.4543 21.967 10.4344 21.9192 10.3919 21.9033C9.73913 21.6597 9.1176 21.3626 8.51973 21.0253C8.47244 20.9981 8.46865 20.9316 8.51216 20.8997C8.63797 20.8069 8.76382 20.7104 8.88396 20.613C8.90569 20.5952 8.93598 20.5914 8.96153 20.6026C12.8893 22.3672 17.1415 22.3672 21.023 20.6026C21.0485 20.5905 21.0788 20.5942 21.1015 20.612C21.2216 20.7095 21.3475 20.8069 21.4742 20.8997C21.5177 20.9316 21.5149 20.9981 21.4676 21.0253C20.8697 21.3692 20.2482 21.6597 19.5945 21.9024C19.552 21.9183 19.533 21.967 19.5538 22.0073C19.9143 22.6942 20.3258 23.3483 20.7789 23.9686C20.7978 23.9949 20.8319 24.0061 20.8631 23.9967C22.8241 23.3998 24.8126 22.4993 26.8654 21.0159C26.8834 21.0028 26.8948 20.9831 26.8967 20.9616C27.3971 15.8676 26.0585 11.4428 23.3482 7.52021C23.3416 7.5071 23.3303 7.49772 23.317 7.4921ZM11.02 18.2778C9.8375 18.2778 8.86313 17.2095 8.86313 15.8976C8.86313 14.5857 9.8186 13.5175 11.02 13.5175C12.2309 13.5175 13.1958 14.5951 13.1769 15.8976C13.1769 17.2095 12.2214 18.2778 11.02 18.2778ZM18.9947 18.2778C17.8123 18.2778 16.8379 17.2095 16.8379 15.8976C16.8379 14.5857 17.7933 13.5175 18.9947 13.5175C20.2056 13.5175 21.1705 14.5951 21.1516 15.8976C21.1516 17.2095 20.2056 18.2778 18.9947 18.2778Z" fill="white"/>
</svg>
