<svg width="22" height="13" viewBox="0 0 22 13" fill="none" xmlns="http://www.w3.org/2000/svg">
<path d="M9.8 -7.15256e-07V1.5H2.2V5.78H8.42V7.28H2.2V13H0.6V-7.15256e-07H9.8ZM11.9086 13V-7.15256e-07H17.6486C18.5553 -7.15256e-07 19.3286 0.139999 19.9686 0.42C20.6086 0.686666 21.0953 1.09333 21.4286 1.64C21.7753 2.18667 21.9486 2.87333 21.9486 3.7C21.9486 4.26 21.8553 4.74 21.6686 5.14C21.4953 5.54 21.2486 5.88 20.9286 6.16C20.6086 6.42667 20.2286 6.63333 19.7886 6.78C19.3619 6.92667 18.8953 7.02 18.3886 7.06L18.3286 6.96C19.0353 6.98667 19.6419 7.07333 20.1486 7.22C20.6553 7.36667 21.0486 7.63333 21.3286 8.02C21.6086 8.40667 21.7486 8.98667 21.7486 9.76V13H20.1486V9.76C20.1486 9.22667 20.0553 8.81333 19.8686 8.52C19.6953 8.21333 19.3953 8 18.9686 7.88C18.5553 7.74667 17.9819 7.68 17.2486 7.68H13.5086V13H11.9086ZM13.5086 6.18H17.6486C18.5553 6.18 19.2286 5.95333 19.6686 5.5C20.1219 5.03333 20.3486 4.43333 20.3486 3.7C20.3486 2.99333 20.1219 2.45333 19.6686 2.08C19.2286 1.69333 18.5553 1.5 17.6486 1.5H13.5086V6.18Z" fill="black"/>
</svg>
