<?xml version="1.0" standalone="no"?>
<!DOCTYPE svg PUBLIC "-//W3C//DTD SVG 20010904//EN"
 "http://www.w3.org/TR/2001/REC-SVG-20010904/DTD/svg10.dtd">
<svg version="1.0" xmlns="http://www.w3.org/2000/svg"
 width="156.000000pt" height="156.000000pt" viewBox="0 0 156.000000 156.000000"
 preserveAspectRatio="xMidYMid meet">

<g transform="translate(0.000000,156.000000) scale(0.100000,-0.100000)"
fill="#000000" stroke="none">
<path d="M644 1436 c-246 -56 -432 -228 -506 -466 -18 -60 -23 -98 -23 -190 0
-194 58 -335 194 -471 136 -136 277 -194 471 -194 194 0 335 58 471 194 136
136 194 277 194 471 0 194 -58 335 -194 471 -128 127 -265 187 -446 195 -64 2
-122 -1 -161 -10z m79 -38 c-4 -7 -30 -46 -56 -86 -88 -132 -138 -268 -158
-423 l-12 -89 -173 0 c-201 0 -185 -11 -159 113 49 234 246 431 480 482 79 17
88 18 78 3z m260 -23 c93 -32 167 -78 241 -151 99 -99 165 -232 181 -366 l7
-58 -175 0 -175 0 -7 63 c-19 167 -95 368 -184 486 -23 30 -41 56 -41 58 0 8
91 -11 153 -32z m-154 -37 c87 -118 150 -265 176 -415 24 -138 52 -123 -225
-123 -276 0 -249 -15 -225 123 16 93 52 201 95 287 33 65 116 180 130 180 5 0
27 -24 49 -52z m-324 -640 c19 -168 95 -369 184 -487 23 -30 39 -56 37 -58
-10 -10 -156 30 -219 61 -175 85 -303 248 -343 435 -25 121 -40 111 160 111
l174 0 7 -62z m510 0 c-17 -149 -77 -314 -156 -433 -70 -104 -75 -107 -111
-65 -86 101 -166 283 -193 437 -24 138 -52 123 226 123 l241 0 -7 -62z m395
40 c-1 -52 -32 -164 -64 -231 -85 -176 -248 -304 -439 -343 -38 -8 -71 -13
-73 -12 -2 2 16 31 40 65 96 138 157 293 177 451 l12 92 173 0 c174 0 174 0
174 -22z"/>
</g>
</svg>
