<svg width="28" height="28" viewBox="0 0 28 28" fill="none" xmlns="http://www.w3.org/2000/svg">
<path d="M7.70833 0C3.45796 0 0 3.45796 0 7.70833V20.0417C0 24.292 3.45796 27.75 7.70833 27.75H20.0417C24.292 27.75 27.75 24.292 27.75 20.0417V7.70833C27.75 3.45796 24.292 0 20.0417 0H7.70833ZM7.70833 3.08333H20.0417C22.5916 3.08333 24.6667 5.15842 24.6667 7.70833V20.0417C24.6667 22.5916 22.5916 24.6667 20.0417 24.6667H7.70833C5.15842 24.6667 3.08333 22.5916 3.08333 20.0417V7.70833C3.08333 5.15842 5.15842 3.08333 7.70833 3.08333ZM21.5833 4.625C21.1745 4.625 20.7823 4.78743 20.4932 5.07654C20.2041 5.36566 20.0417 5.75779 20.0417 6.16667C20.0417 6.57554 20.2041 6.96767 20.4932 7.25679C20.7823 7.54591 21.1745 7.70833 21.5833 7.70833C21.9922 7.70833 22.3843 7.54591 22.6735 7.25679C22.9626 6.96767 23.125 6.57554 23.125 6.16667C23.125 5.75779 22.9626 5.36566 22.6735 5.07654C22.3843 4.78743 21.9922 4.625 21.5833 4.625ZM13.875 6.16667C9.62463 6.16667 6.16667 9.62463 6.16667 13.875C6.16667 18.1254 9.62463 21.5833 13.875 21.5833C18.1254 21.5833 21.5833 18.1254 21.5833 13.875C21.5833 9.62463 18.1254 6.16667 13.875 6.16667ZM13.875 9.25C16.4249 9.25 18.5 11.3251 18.5 13.875C18.5 16.4249 16.4249 18.5 13.875 18.5C11.3251 18.5 9.25 16.4249 9.25 13.875C9.25 11.3251 11.3251 9.25 13.875 9.25Z" fill="white"/>
</svg>
