<svg width="30" height="29" viewBox="0 0 30 29" fill="none" xmlns="http://www.w3.org/2000/svg">
<path fill-rule="evenodd" clip-rule="evenodd" d="M9 1C4.02942 1 0 5.02945 0 10V27C0 28.1046 0.895447 29 2 29H21C25.9706 29 30 24.9706 30 20V10C30 5.02945 25.9706 1 21 1H9ZM7 9.79999C7 9.35818 7.35815 9 7.79999 9H22.2C22.6418 9 23 9.35818 23 9.79999V13.2C23 13.6418 22.6418 14 22.2 14H7.79999C7.35815 14 7 13.6418 7 13.2V9.79999ZM7 17.8C7 17.3582 7.35815 17 7.79999 17H17.2C17.6418 17 18 17.3582 18 17.8V21.2C18 21.6418 17.6418 22 17.2 22H7.79999C7.35815 22 7 21.6418 7 21.2V17.8Z" fill="black"/>
</svg>
