<svg width="156" height="58" viewBox="0 0 156 58" fill="none" xmlns="http://www.w3.org/2000/svg">
<rect x="0.5" y="0.672424" width="154" height="55" rx="27.5" stroke="black"/>
<path d="M39.8332 29.6404H40.6972C40.7212 29.9764 40.8212 30.2764 40.9972 30.5404C41.1732 30.8044 41.4132 31.0124 41.7172 31.1644C42.0292 31.3164 42.3932 31.3924 42.8092 31.3924C43.1692 31.3924 43.4692 31.3404 43.7092 31.2364C43.9572 31.1244 44.1412 30.9724 44.2612 30.7804C44.3892 30.5884 44.4532 30.3644 44.4532 30.1084C44.4532 29.8444 44.3892 29.6324 44.2612 29.4724C44.1332 29.3124 43.9492 29.1764 43.7092 29.0644C43.4692 28.9524 43.1852 28.8444 42.8572 28.7404C42.5452 28.6444 42.2292 28.5324 41.9092 28.4044C41.5892 28.2764 41.2892 28.1204 41.0092 27.9364C40.7372 27.7524 40.5172 27.5324 40.3492 27.2764C40.1812 27.0124 40.0972 26.6964 40.0972 26.3284C40.0972 25.9684 40.1932 25.6324 40.3852 25.3204C40.5852 25.0004 40.8732 24.7444 41.2492 24.5524C41.6332 24.3524 42.0932 24.2524 42.6292 24.2524C43.4692 24.2524 44.0972 24.4804 44.5132 24.9364C44.9292 25.3924 45.1292 25.9964 45.1132 26.7484H44.2492C44.2332 26.1804 44.0732 25.7724 43.7692 25.5244C43.4652 25.2764 43.0692 25.1524 42.5812 25.1524C42.1732 25.1524 41.8172 25.2484 41.5132 25.4404C41.2092 25.6244 41.0572 25.9164 41.0572 26.3164C41.0572 26.4924 41.0892 26.6484 41.1532 26.7844C41.2252 26.9124 41.3372 27.0324 41.4892 27.1444C41.6492 27.2564 41.8612 27.3684 42.1252 27.4804C42.3972 27.5844 42.7292 27.7004 43.1212 27.8284C43.3772 27.9084 43.6372 28.0044 43.9012 28.1164C44.1732 28.2284 44.4212 28.3684 44.6452 28.5364C44.8772 28.7044 45.0612 28.9204 45.1972 29.1844C45.3412 29.4404 45.4132 29.7644 45.4132 30.1564C45.4132 30.5324 45.3212 30.8844 45.1372 31.2124C44.9612 31.5324 44.6812 31.7924 44.2972 31.9924C43.9212 32.1924 43.4332 32.2924 42.8332 32.2924C42.3212 32.2924 41.8812 32.2244 41.5132 32.0884C41.1532 31.9444 40.8572 31.7604 40.6252 31.5364C40.3932 31.3124 40.2132 31.0804 40.0852 30.8404C39.9652 30.5924 39.8852 30.3604 39.8452 30.1444C39.8052 29.9284 39.8012 29.7604 39.8332 29.6404ZM49.0134 28.7404V31.2724H53.5854V32.1724H48.0534V24.3724H53.5734V25.2724H49.0134V27.8404H52.7454V28.7404H49.0134ZM62.4844 31.0324L62.2204 31.1164V24.3724H63.1804V32.1724H62.2204L57.1564 25.5244L57.4204 25.4404V32.1724H56.4604V24.3724H57.4204L62.4844 31.0324ZM68.8291 24.3724C69.6131 24.3724 70.2691 24.4764 70.7971 24.6844C71.3331 24.8844 71.7611 25.1644 72.0811 25.5244C72.4011 25.8844 72.6331 26.2964 72.7771 26.7604C72.9211 27.2244 72.9931 27.7164 72.9931 28.2364C72.9931 28.7564 72.9171 29.2524 72.7651 29.7244C72.6131 30.1964 72.3691 30.6164 72.0331 30.9844C71.7051 31.3524 71.2771 31.6444 70.7491 31.8604C70.2211 32.0684 69.5811 32.1724 68.8291 32.1724H66.2971V24.3724H68.8291ZM67.2571 31.2724H68.8291C69.4611 31.2724 69.9811 31.1844 70.3891 31.0084C70.8051 30.8324 71.1331 30.6004 71.3731 30.3124C71.6131 30.0164 71.7811 29.6884 71.8771 29.3284C71.9811 28.9684 72.0331 28.6044 72.0331 28.2364C72.0331 27.8684 71.9811 27.5084 71.8771 27.1564C71.7811 26.8044 71.6131 26.4884 71.3731 26.2084C71.1331 25.9204 70.8051 25.6924 70.3891 25.5244C69.9811 25.3564 69.4611 25.2724 68.8291 25.2724H67.2571V31.2724Z" fill="black"/>
<path d="M103.532 56.7501L103.88 1.64866e-05L126.872 0.141041C142.543 0.237162 155.169 13.019 155.073 28.6901V28.6901C154.977 44.3612 142.195 56.9872 126.524 56.8911L103.532 56.7501Z" fill="#1E1E1E"/>
<g clip-path="url(#clip0_587_2589)">
<path d="M130.333 36.2737L138.383 28.2232L130.333 20.1727" stroke="white" stroke-width="2" stroke-linecap="round"/>
<path d="M138.398 28.223H118" stroke="white" stroke-width="2"/>
</g>
<defs>
<clipPath id="clip0_587_2589">
<rect width="22" height="18" fill="white" transform="translate(118 19.1724)"/>
</clipPath>
</defs>
</svg>
