<svg width="30" height="30" viewBox="0 0 30 30" fill="none" xmlns="http://www.w3.org/2000/svg">
<path d="M8.70833 2C4.45796 2 1 5.45796 1 9.70833V22.0417C1 26.292 4.45796 29.75 8.70833 29.75H21.0417C25.292 29.75 28.75 26.292 28.75 22.0417V9.70833C28.75 5.45796 25.292 2 21.0417 2H8.70833ZM8.70833 5.08333H21.0417C23.5916 5.08333 25.6667 7.15842 25.6667 9.70833V22.0417C25.6667 24.5916 23.5916 26.6667 21.0417 26.6667H8.70833C6.15842 26.6667 4.08333 24.5916 4.08333 22.0417V9.70833C4.08333 7.15842 6.15842 5.08333 8.70833 5.08333ZM22.5833 6.625C22.1745 6.625 21.7823 6.78743 21.4932 7.07654C21.2041 7.36566 21.0417 7.75779 21.0417 8.16667C21.0417 8.57554 21.2041 8.96767 21.4932 9.25679C21.7823 9.54591 22.1745 9.70833 22.5833 9.70833C22.9922 9.70833 23.3843 9.54591 23.6735 9.25679C23.9626 8.96767 24.125 8.57554 24.125 8.16667C24.125 7.75779 23.9626 7.36566 23.6735 7.07654C23.3843 6.78743 22.9922 6.625 22.5833 6.625ZM14.875 8.16667C10.6246 8.16667 7.16667 11.6246 7.16667 15.875C7.16667 20.1254 10.6246 23.5833 14.875 23.5833C19.1254 23.5833 22.5833 20.1254 22.5833 15.875C22.5833 11.6246 19.1254 8.16667 14.875 8.16667ZM14.875 11.25C17.4249 11.25 19.5 13.3251 19.5 15.875C19.5 18.4249 17.4249 20.5 14.875 20.5C12.3251 20.5 10.25 18.4249 10.25 15.875C10.25 13.3251 12.3251 11.25 14.875 11.25Z" fill="black"></path>
</svg>
