<svg width="36" height="30" viewBox="0 0 36 30" fill="none" xmlns="http://www.w3.org/2000/svg">
<path d="M8.02362 5.22401V22.2587C8.01264 23.3296 7.5851 24.3529 6.83394 25.1062C6.08278 25.8595 5.06862 26.2821 4.01181 26.2821C2.95498 26.2821 1.94083 25.8595 1.18967 25.1062C0.438502 24.3529 0.0109906 23.3296 0 22.2587V5.22401C0.000690298 4.1459 0.423927 3.1122 1.17663 2.35027C1.92933 1.58833 2.94986 1.16056 4.01376 1.16102C4.67909 1.15924 5.33414 1.32708 5.91867 1.64912C5.92779 1.65307 5.93169 1.65791 5.93603 1.65791C5.93829 1.66042 5.94137 1.66199 5.94471 1.66231C6.27739 1.84625 6.58153 2.07887 6.84726 2.35267C7.22026 2.72921 7.51615 3.1767 7.71805 3.66945C7.91991 4.1622 8.02375 4.6905 8.02362 5.22401Z" fill="url('#paint0_linear_115_473')"></path>
<path d="M17.1919 8.90452V25.9348C17.1919 26.4687 17.0881 26.9973 16.8865 27.4905C16.6849 27.9837 16.3894 28.4318 16.0169 28.8093C15.6444 29.1868 15.2021 29.4863 14.7155 29.6906C14.2287 29.8949 13.7071 30 13.1803 30C12.6535 30 12.1318 29.8949 11.6451 29.6906C11.1584 29.4863 10.7162 29.1868 10.3437 28.8093C9.97115 28.4318 9.67565 27.9837 9.47405 27.4905C9.27245 26.9973 9.1687 26.4687 9.1687 25.9348V8.90452C9.16857 8.37035 9.27232 7.84137 9.47401 7.34788C9.67565 6.85434 9.97132 6.40591 10.3441 6.02819C10.7168 5.65047 11.1593 5.35085 11.6463 5.14651C12.1333 4.94213 12.6553 4.837 13.1825 4.83713C13.3257 4.83713 13.4645 4.84592 13.599 4.85867H13.6081C14.5924 4.96711 15.5024 5.43998 16.1638 6.18654C16.8252 6.93309 17.1913 7.90082 17.1919 8.90408V8.90452Z" fill="url('#paint1_linear_115_473')"></path>
<path d="M26.4127 4.06316V21.0979C26.4127 22.176 25.99 23.21 25.2377 23.9724C24.4854 24.7348 23.465 25.1631 22.4011 25.1631C21.3372 25.1631 20.3168 24.7348 19.5645 23.9724C18.8121 23.21 18.3895 22.176 18.3895 21.0979V4.06316C18.3895 3.52923 18.4933 3.00054 18.6951 2.5073C18.8969 2.01407 19.1926 1.56598 19.5654 1.18863C19.9381 0.811293 20.3806 0.512109 20.8676 0.308181C21.3545 0.104255 21.8763 -0.000411773 22.4033 0.000166074C22.5688 -0.00156223 22.7342 0.0102015 22.8979 0.0353435H22.9066C23.7889 0.143517 24.6096 0.5493 25.2368 1.18741C25.6098 1.56482 25.9056 2.0131 26.1074 2.50657C26.3092 3.00004 26.4129 3.529 26.4127 4.06316Z" fill="url('#paint2_linear_115_473')"></path>
<path d="M35.5814 8.71056V25.7413C35.5814 26.2752 35.4776 26.8038 35.276 27.297C35.0744 27.7902 34.7789 28.2383 34.4064 28.6158C34.0339 28.9933 33.5916 29.2928 33.105 29.4971C32.6182 29.7013 32.0966 29.8065 31.5698 29.8065C31.043 29.8065 30.5213 29.7013 30.0346 29.4971C29.5479 29.2928 29.1056 28.9933 28.7332 28.6158C28.3606 28.2383 28.0651 27.7902 27.8635 27.297C27.6619 26.8038 27.5582 26.2752 27.5582 25.7413V8.71056C27.5581 8.17639 27.6619 7.64749 27.8636 7.15395C28.0653 6.66046 28.3609 6.21203 28.7336 5.83436C29.1064 5.45664 29.5489 5.15706 30.0359 4.95268C30.5229 4.7483 31.0448 4.64312 31.572 4.64316C32.1028 4.64096 32.6285 4.74887 33.1167 4.9602H33.1211C33.1233 4.9627 33.1264 4.96429 33.1297 4.96459C33.6074 5.16686 34.0409 5.46275 34.4055 5.83524C34.7795 6.21172 35.0761 6.6598 35.278 7.15338C35.4799 7.64696 35.583 8.17625 35.5814 8.71056Z" fill="url('#paint3_linear_115_473')"></path>
<defs>
<linearGradient id="paint0_linear_115_473" x1="4.01181" y1="0.683711" x2="4.01181" y2="23.6443" gradientUnits="userSpaceOnUse">
<stop stop-color="#F4839F"></stop>
<stop offset="0.314158" stop-color="#F5838A" stop-opacity="0.877064"></stop>
<stop offset="0.594394" stop-color="#EFBC92" stop-opacity="0.94"></stop>
<stop offset="0.785464" stop-color="#F3D8B9" stop-opacity="0.9"></stop>
<stop offset="1" stop-color="#F4E0CD"></stop>
</linearGradient>
<linearGradient id="paint1_linear_115_473" x1="13.1803" y1="4.35903" x2="13.1803" y2="27.3579" gradientUnits="userSpaceOnUse">
<stop stop-color="#F4839F"></stop>
<stop offset="1" stop-color="#FF3067"></stop>
</linearGradient>
<linearGradient id="paint2_linear_115_473" x1="22.4011" y1="-0.478098" x2="22.4011" y2="22.5209" gradientUnits="userSpaceOnUse">
<stop stop-color="#FD6A8F"></stop>
<stop offset="0.314158" stop-color="#F5838A" stop-opacity="0.877064"></stop>
<stop offset="0.594394" stop-color="#EFBC92" stop-opacity="0.94"></stop>
<stop offset="0.785464" stop-color="#F3D8B9" stop-opacity="0.9"></stop>
<stop offset="1" stop-color="#F4E0CD"></stop>
</linearGradient>
<linearGradient id="paint3_linear_115_473" x1="31.5698" y1="4.16502" x2="31.5698" y2="27.1643" gradientUnits="userSpaceOnUse">
<stop stop-color="#F4839F"></stop>
<stop offset="1" stop-color="#FF3067"></stop>
</linearGradient>
</defs>
</svg>
