<svg width="30" height="30" viewBox="0 0 30 30" fill="none" xmlns="http://www.w3.org/2000/svg">
<path d="M28.8158 5.65493C27.7723 6.11143 26.6684 6.41219 25.5388 6.54769C26.726 5.84771 27.6187 4.73567 28.0497 3.42013C26.9273 4.08099 25.7013 4.54469 24.4244 4.79135C23.8867 4.22392 23.24 3.77251 22.5236 3.46456C21.8072 3.15661 21.0361 2.99856 20.2572 3.00001C17.1036 3.00001 14.5515 5.5324 14.5515 8.65412C14.5493 9.08834 14.5987 9.52126 14.6987 9.94366C12.4373 9.83691 10.223 9.25605 8.19733 8.23823C6.17167 7.22042 4.37932 5.78806 2.93493 4.0328C2.42821 4.89295 2.16022 5.87435 2.15899 6.87445C2.15899 8.835 3.17485 10.568 4.70877 11.5833C3.79996 11.5616 2.90978 11.3194 2.11379 10.8773V10.9472C2.11379 13.6897 4.08407 15.9712 6.6918 16.4905C6.20143 16.6222 5.6961 16.6889 5.18859 16.6889C4.82848 16.6895 4.46919 16.6544 4.11595 16.5839C4.8409 18.8304 6.95084 20.4641 9.45018 20.5109C7.41929 22.0868 4.92587 22.9386 2.36182 22.9323C1.90669 22.9317 1.45199 22.9044 1 22.8506C3.60841 24.5278 6.64049 25.4149 9.73534 25.4064C20.2451 25.4064 25.9867 16.7881 25.9867 9.31348C25.9867 9.0684 25.9803 8.82333 25.9687 8.5841C27.0832 7.78591 28.0473 6.79399 28.8158 5.65493Z" fill="black"></path>
</svg>
